<svg xmlns="http://www.w3.org/2000/svg" viewBox="0 0 96.97 67.13"><defs><style>.cls-1{fill:#6e75f5;}</style></defs><g id="Layer_2" data-name="Layer 2"><g id="Layer_1-2" data-name="Layer 1"><path d="M95.83,19.66,70.39.57a2.83,2.83,0,0,0-4.53,2.27V41a2.83,2.83,0,0,0,4.53,2.27L95.83,24.19A2.82,2.82,0,0,0,95.83,19.66Z"/><path class="cls-1" d="M79.34,53.1,66.55,62.52a2.55,2.55,0,0,0,1.51,4.61H93.64a2.55,2.55,0,0,0,1.51-4.61L82.36,53.1A2.55,2.55,0,0,0,79.34,53.1Z"/><path d="M51.16,67.13H3.35C1,67.13-.17,64.9,1.49,63.6L48.06,27c2.11-1.66,5.73-.49,5.73,1.86V65.06A2.4,2.4,0,0,1,51.16,67.13Z"/><path d="M2.86.34H54.92c2.55,0,3.83,2.42,2,3.84L6.23,44C3.93,45.82,0,44.54,0,42V2.59C0,1.35,1.28.34,2.86.34Z"/></g></g></svg>